<svg width="24" height="24" viewBox="0 0 24 24" fill="none" xmlns="http://www.w3.org/2000/svg">
    <circle cx="12" cy="12" r="12" fill="#222222"/>
    <path d="M12 17.2188C14.3037 17.2188 15.8418 16.0088 15.8418 14.2178V14.2041C15.8418 12.8643 14.8848 12.0166 13.415 11.8799V11.8389C14.5703 11.5996 15.4727 10.7998 15.4727 9.56934V9.55566C15.4727 7.9834 14.1055 6.91699 11.9863 6.91699C9.91504 6.91699 8.52734 8.06543 8.38379 9.8291L8.37695 9.91113H10.2773L10.2842 9.84961C10.3662 9.0293 11.0156 8.50293 11.9863 8.50293C12.957 8.50293 13.5244 9.00879 13.5244 9.8291V9.84277C13.5244 10.6426 12.8545 11.1895 11.8154 11.1895H10.7148V12.6592H11.8428C13.0391 12.6592 13.7432 13.1787 13.7432 14.1221V14.1357C13.7432 14.9697 13.0527 15.5576 12 15.5576C10.9336 15.5576 10.2295 15.0107 10.1406 14.2451L10.1338 14.1699H8.1582L8.16504 14.2588C8.30176 16.0225 9.77148 17.2188 12 17.2188Z" fill="white"/>
</svg>
