<?xml version="1.0" standalone="no"?>
<!DOCTYPE svg PUBLIC "-//W3C//DTD SVG 20010904//EN"
 "http://www.w3.org/TR/2001/REC-SVG-20010904/DTD/svg10.dtd">
<svg version="1.0" xmlns="http://www.w3.org/2000/svg"
 width="234.000000pt" height="40.000000pt" viewBox="0 0 234.000000 40.000000"
 preserveAspectRatio="xMidYMid meet">

<g transform="translate(0.000000,40.000000) scale(0.100000,-0.100000)"
fill="#000000" stroke="none">
<path d="M37 393 c-4 -3 -7 -19 -7 -35 l0 -28 135 0 135 0 0 -35 c0 -35 0 -35
45 -35 l45 0 0 70 0 70 -173 0 c-96 0 -177 -3 -180 -7z"/>
<path d="M582 369 c-106 -53 -133 -197 -55 -290 37 -43 80 -62 143 -62 81 0
144 40 169 106 17 44 14 47 -35 47 -38 0 -49 -5 -71 -30 -66 -79 -180 6 -139
104 25 61 117 70 147 15 7 -15 21 -19 59 -19 54 0 58 6 36 48 -49 93 -159 128
-254 81z"/>
<path d="M1715 377 c-165 -76 -140 -324 37 -357 81 -16 150 13 196 80 36 53
30 70 -24 70 -38 0 -49 -5 -71 -30 -53 -64 -143 -24 -143 62 0 24 6 50 13 59
35 45 105 47 133 3 14 -20 25 -24 65 -24 29 0 49 4 49 11 0 25 -43 86 -76 109
-43 29 -133 38 -179 17z"/>
<path d="M910 199 l0 -180 48 3 47 3 3 68 3 67 49 0 49 0 3 -67 3 -68 48 -3
47 -3 0 181 0 181 -47 -3 -48 -3 -3 -62 -3 -63 -49 0 -50 0 0 65 0 65 -50 0
-50 0 0 -181z"/>
<path d="M1292 203 l3 -178 133 -3 132 -3 0 46 0 45 -85 0 c-84 0 -85 0 -85
25 0 24 2 25 75 25 l75 0 0 40 0 40 -75 0 c-73 0 -75 1 -75 25 0 24 2 25 73
25 88 0 99 7 95 51 l-3 34 -133 3 -132 3 2 -178z"/>
<path d="M2030 199 l0 -180 48 3 47 3 5 72 5 72 49 -74 48 -75 49 0 c26 0 50
4 53 9 3 4 -19 44 -49 87 -30 43 -55 84 -55 92 0 7 23 46 50 87 28 41 50 77
50 80 0 3 -24 5 -54 5 l-54 0 -46 -72 -46 -73 0 73 0 72 -50 0 -50 0 0 -181z"/>
<path d="M137 303 c-4 -3 -7 -19 -7 -35 0 -28 0 -28 -65 -28 l-65 0 0 -30 0
-30 213 2 212 3 0 25 c0 25 -1 25 -100 30 l-100 5 -3 33 c-3 30 -6 32 -41 32
-21 0 -41 -3 -44 -7z"/>
<path d="M142 160 c-55 -8 -99 -31 -109 -56 -10 -27 7 -64 40 -81 47 -26 227
-25 280 1 44 22 56 55 33 90 -26 40 -139 62 -244 46z m157 -69 c10 -7 11 -10
0 -16 -17 -11 -151 -12 -168 -1 -24 15 9 26 84 26 39 0 76 -4 84 -9z"/>
</g>
</svg>
