<svg width="22" height="22" viewBox="0 0 22 22" fill="none" xmlns="http://www.w3.org/2000/svg">
<g id="Icn / Basic / Setting">
<g id="Union">
<mask id="path-1-inside-1_3018_4453" fill="white">
<path fill-rule="evenodd" clip-rule="evenodd" d="M8.33332 1H13.6667L14.2655 3.69462C14.771 3.92094 15.2488 4.1982 15.6922 4.51986L18.3269 3.6906L20.9936 8.3094L18.9581 10.1764C18.9858 10.4472 19 10.7219 19 11C19 11.2781 18.9858 11.5528 18.9581 11.8235L20.9936 13.6906L18.3269 18.3094L15.6922 17.4801C15.2488 17.8018 14.771 18.0791 14.2655 18.3054L13.6667 21H8.33332L7.73452 18.3054C7.22898 18.079 6.75123 17.8018 6.30777 17.4801L3.67308 18.3094L1.00641 13.6906L3.04187 11.8236C3.01419 11.5528 3 11.2781 3 11C3 10.7219 3.01419 10.4472 3.04188 10.1764L1.00644 8.30939L3.6731 3.69059L6.30779 4.51985C6.75124 4.1982 7.22899 3.92095 7.73452 3.69463L8.33332 1Z"/>
</mask>
<path d="M13.6667 1L15.1309 0.674604L14.8699 -0.5H13.6667V1ZM8.33332 1V-0.5H7.13007L6.86904 0.674604L8.33332 1ZM14.2655 3.69462L12.8012 4.02002L12.9647 4.75574L13.6526 5.06369L14.2655 3.69462ZM15.6922 4.51986L14.8115 5.73407L15.4225 6.17729L16.1426 5.95066L15.6922 4.51986ZM18.3269 3.6906L19.626 2.9406L19.0243 1.89855L17.8766 2.2598L18.3269 3.6906ZM20.9936 8.3094L22.0075 9.41481L22.8943 8.60145L22.2926 7.5594L20.9936 8.3094ZM18.9581 10.1764L17.9442 9.07103L17.3893 9.58L17.4659 10.329L18.9581 10.1764ZM18.9581 11.8235L17.4659 11.6709L17.3893 12.42L17.9442 12.9289L18.9581 11.8235ZM20.9936 13.6906L22.2927 14.4406L22.8943 13.3985L22.0076 12.5852L20.9936 13.6906ZM18.3269 18.3094L17.8766 19.7402L19.0244 20.1014L19.626 19.0594L18.3269 18.3094ZM15.6922 17.4801L16.1426 16.0493L15.4225 15.8227L14.8115 16.2659L15.6922 17.4801ZM14.2655 18.3054L13.6526 16.9363L12.9647 17.2443L12.8012 17.98L14.2655 18.3054ZM13.6667 21V22.5H14.8699L15.1309 21.3254L13.6667 21ZM8.33332 21L6.86904 21.3254L7.13007 22.5H8.33332V21ZM7.73452 18.3054L9.1988 17.98L9.0353 17.2443L8.34742 16.9363L7.73452 18.3054ZM6.30777 17.4801L7.1885 16.2659L6.57747 15.8227L5.85744 16.0493L6.30777 17.4801ZM3.67308 18.3094L2.37404 19.0594L2.97567 20.1015L4.12341 19.7402L3.67308 18.3094ZM1.00641 13.6906L-0.00753212 12.5852L-0.894258 13.3985L-0.292629 14.4406L1.00641 13.6906ZM3.04187 11.8236L4.05581 12.929L4.61069 12.42L4.53409 11.671L3.04187 11.8236ZM3.04188 10.1764L4.53409 10.329L4.6107 9.57998L4.05582 9.07101L3.04188 10.1764ZM1.00644 8.30939L-0.292602 7.55939L-0.894231 8.60144L-0.0075053 9.4148L1.00644 8.30939ZM3.6731 3.69059L4.12344 2.25979L2.97569 1.89854L2.37406 2.94059L3.6731 3.69059ZM6.30779 4.51985L5.85745 5.95065L6.57748 6.17728L7.18852 5.73406L6.30779 4.51985ZM7.73452 3.69463L8.34742 5.0637L9.0353 4.75575L9.1988 4.02003L7.73452 3.69463ZM13.6667 -0.5H8.33332V2.5H13.6667V-0.5ZM15.7297 3.36923L15.1309 0.674604L12.2024 1.3254L12.8012 4.02002L15.7297 3.36923ZM16.573 3.30564C16.0466 2.92388 15.4792 2.59454 14.8784 2.32555L13.6526 5.06369C14.0628 5.24734 14.4509 5.47251 14.8115 5.73407L16.573 3.30564ZM17.8766 2.2598L15.2419 3.08906L16.1426 5.95066L18.7773 5.1214L17.8766 2.2598ZM22.2926 7.5594L19.626 2.9406L17.0279 4.4406L19.6945 9.0594L22.2926 7.5594ZM19.9721 11.2818L22.0075 9.41481L19.9796 7.204L17.9442 9.07103L19.9721 11.2818ZM20.5 11C20.5 10.6709 20.4832 10.3452 20.4503 10.0238L17.4659 10.329C17.4884 10.5492 17.5 10.773 17.5 11H20.5ZM20.4503 11.9761C20.4832 11.6548 20.5 11.3291 20.5 11H17.5C17.5 11.227 17.4884 11.4508 17.4659 11.6709L20.4503 11.9761ZM22.0076 12.5852L19.9721 10.7181L17.9442 12.9289L19.9797 14.796L22.0076 12.5852ZM19.626 19.0594L22.2927 14.4406L19.6946 12.9406L17.0279 17.5594L19.626 19.0594ZM15.2419 18.9109L17.8766 19.7402L18.7773 16.8786L16.1426 16.0493L15.2419 18.9109ZM14.8784 19.6744C15.4792 19.4055 16.0467 19.0761 16.573 18.6943L14.8115 16.2659C14.4509 16.5275 14.0628 16.7527 13.6526 16.9363L14.8784 19.6744ZM15.1309 21.3254L15.7297 18.6308L12.8012 17.98L12.2024 20.6746L15.1309 21.3254ZM8.33332 22.5H13.6667V19.5H8.33332V22.5ZM6.27024 18.6308L6.86904 21.3254L9.7976 20.6746L9.1988 17.98L6.27024 18.6308ZM5.42704 18.6944C5.95335 19.0761 6.52076 19.4054 7.12161 19.6744L8.34742 16.9363C7.9372 16.7527 7.5491 16.5275 7.1885 16.2659L5.42704 18.6944ZM4.12341 19.7402L6.75811 18.9109L5.85744 16.0493L3.22274 16.8786L4.12341 19.7402ZM-0.292629 14.4406L2.37404 19.0594L4.97211 17.5594L2.30545 12.9406L-0.292629 14.4406ZM2.02793 10.7181L-0.00753212 12.5852L2.02035 14.796L4.05581 12.929L2.02793 10.7181ZM1.5 11C1.5 11.3291 1.51679 11.6548 1.54966 11.9762L4.53409 11.671C4.51158 11.4508 4.5 11.227 4.5 11H1.5ZM1.54966 10.0238C1.51679 10.3452 1.5 10.6709 1.5 11H4.5C4.5 10.773 4.51158 10.5492 4.53409 10.329L1.54966 10.0238ZM-0.0075053 9.4148L2.02794 11.2818L4.05582 9.07101L2.02038 7.20399L-0.0075053 9.4148ZM2.37406 2.94059L-0.292602 7.55939L2.30547 9.05939L4.97214 4.44059L2.37406 2.94059ZM6.75813 3.08905L4.12344 2.25979L3.22276 5.12139L5.85745 5.95065L6.75813 3.08905ZM7.12161 2.32556C6.52077 2.59455 5.95337 2.92388 5.42706 3.30563L7.18852 5.73406C7.54911 5.47251 7.93721 5.24734 8.34742 5.0637L7.12161 2.32556ZM6.86904 0.674604L6.27024 3.36924L9.1988 4.02003L9.7976 1.3254L6.86904 0.674604Z" fill="#222222" mask="url(#path-1-inside-1_3018_4453)"/>
</g>
<circle id="Ellipse 9" cx="11" cy="11" r="3.25" stroke="#222222" stroke-width="1.5"/>
</g>
</svg>
