<svg width="28" height="23" viewBox="0 0 28 23" fill="none" xmlns="http://www.w3.org/2000/svg">
    <path d="M11.3334 11.0002C9.86675 11.0002 8.61119 10.4779 7.56675 9.4335C6.5223 8.38905 6.00008 7.1335 6.00008 5.66683C6.00008 4.20016 6.5223 2.94461 7.56675 1.90016C8.61119 0.855718 9.86675 0.333496 11.3334 0.333496C12.8001 0.333496 14.0556 0.855718 15.1001 1.90016C16.1445 2.94461 16.6667 4.20016 16.6667 5.66683C16.6667 7.1335 16.1445 8.38905 15.1001 9.4335C14.0556 10.4779 12.8001 11.0002 11.3334 11.0002ZM0.666748 21.6668V17.9335C0.666748 17.2002 0.855637 16.5113 1.23341 15.8668C1.61119 15.2224 2.13341 14.7335 2.80008 14.4002C3.93341 13.8224 5.21119 13.3335 6.63341 12.9335C8.05564 12.5335 9.6223 12.3335 11.3334 12.3335H11.8001C11.9334 12.3335 12.0667 12.3557 12.2001 12.4002C12.0223 12.8002 11.8721 13.2171 11.7494 13.6508C11.6276 14.0837 11.5334 14.5335 11.4667 15.0002H11.3334C9.75564 15.0002 8.33875 15.2002 7.08275 15.6002C5.82764 16.0002 4.80008 16.4002 4.00008 16.8002C3.80008 16.9113 3.63919 17.0668 3.51741 17.2668C3.39475 17.4668 3.33341 17.6891 3.33341 17.9335V19.0002H11.7334C11.8667 19.4668 12.0445 19.9282 12.2667 20.3842C12.489 20.8393 12.7334 21.2668 13.0001 21.6668H0.666748ZM19.3334 23.0002L18.9334 21.0002C18.6667 20.889 18.4165 20.7726 18.1827 20.6508C17.9499 20.5282 17.7112 20.3779 17.4667 20.2002L15.5334 20.8002L14.2001 18.5335L15.7334 17.2002C15.689 16.889 15.6667 16.6002 15.6667 16.3335C15.6667 16.0668 15.689 15.7779 15.7334 15.4668L14.2001 14.1335L15.5334 11.8668L17.4667 12.4668C17.7112 12.2891 17.9499 12.1388 18.1827 12.0162C18.4165 11.8944 18.6667 11.7779 18.9334 11.6668L19.3334 9.66683H22.0001L22.4001 11.6668C22.6667 11.7779 22.917 11.9002 23.1507 12.0335C23.3836 12.1668 23.6223 12.3335 23.8667 12.5335L25.8001 11.8668L27.1334 14.2002L25.6001 15.5335C25.6445 15.8002 25.6667 16.0779 25.6667 16.3668C25.6667 16.6557 25.6445 16.9335 25.6001 17.2002L27.1334 18.5335L25.8001 20.8002L23.8667 20.2002C23.6223 20.3779 23.3836 20.5282 23.1507 20.6508C22.917 20.7726 22.6667 20.889 22.4001 21.0002L22.0001 23.0002H19.3334ZM20.6667 19.0002C21.4001 19.0002 22.0281 18.7393 22.5507 18.2175C23.0725 17.6948 23.3334 17.0668 23.3334 16.3335C23.3334 15.6002 23.0725 14.9722 22.5507 14.4495C22.0281 13.9277 21.4001 13.6668 20.6667 13.6668C19.9334 13.6668 19.3059 13.9277 18.7841 14.4495C18.2614 14.9722 18.0001 15.6002 18.0001 16.3335C18.0001 17.0668 18.2614 17.6948 18.7841 18.2175C19.3059 18.7393 19.9334 19.0002 20.6667 19.0002ZM11.3334 8.3335C12.0667 8.3335 12.6947 8.07216 13.2174 7.5495C13.7392 7.02772 14.0001 6.40016 14.0001 5.66683C14.0001 4.9335 13.7392 4.30594 13.2174 3.78416C12.6947 3.2615 12.0667 3.00016 11.3334 3.00016C10.6001 3.00016 9.97253 3.2615 9.45075 3.78416C8.92808 4.30594 8.66675 4.9335 8.66675 5.66683C8.66675 6.40016 8.92808 7.02772 9.45075 7.5495C9.97253 8.07216 10.6001 8.3335 11.3334 8.3335Z" fill="#47676C"/>
</svg>