<svg width="28" height="28" viewBox="0 0 28 28" fill="none" xmlns="http://www.w3.org/2000/svg">
    <path d="M12.6666 20.6666H15.3333V15.3333H20.6666V12.6666H15.3333V7.33329H12.6666V12.6666H7.33329V15.3333H12.6666V20.6666ZM14 27.3333C12.1555 27.3333 10.4222 26.9831 8.79996 26.2826C7.17774 25.5831 5.76663 24.6333 4.56663 23.4333C3.36663 22.2333 2.41685 20.8222 1.71729 19.2C1.01685 17.5777 0.666626 15.8444 0.666626 14C0.666626 12.1555 1.01685 10.4222 1.71729 8.79996C2.41685 7.17774 3.36663 5.76663 4.56663 4.56663C5.76663 3.36663 7.17774 2.4164 8.79996 1.71596C10.4222 1.0164 12.1555 0.666626 14 0.666626C15.8444 0.666626 17.5777 1.0164 19.2 1.71596C20.8222 2.4164 22.2333 3.36663 23.4333 4.56663C24.6333 5.76663 25.5831 7.17774 26.2826 8.79996C26.9831 10.4222 27.3333 12.1555 27.3333 14C27.3333 15.8444 26.9831 17.5777 26.2826 19.2C25.5831 20.8222 24.6333 22.2333 23.4333 23.4333C22.2333 24.6333 20.8222 25.5831 19.2 26.2826C17.5777 26.9831 15.8444 27.3333 14 27.3333Z" fill="#47676C"/>
</svg>