<svg width="16" height="16" viewBox="0 0 16 16" fill="none" xmlns="http://www.w3.org/2000/svg">
    <path d="M2.16667 15.5C1.70833 15.5 1.31583 15.3369 0.989167 15.0108C0.663055 14.6842 0.5 14.2917 0.5 13.8333V2.16667C0.5 1.70833 0.663055 1.31583 0.989167 0.989167C1.31583 0.663055 1.70833 0.5 2.16667 0.5H13.8333C14.2917 0.5 14.6842 0.663055 15.0108 0.989167C15.3369 1.31583 15.5 1.70833 15.5 2.16667V13.8333C15.5 14.2917 15.3369 14.6842 15.0108 15.0108C14.6842 15.3369 14.2917 15.5 13.8333 15.5H2.16667ZM3 8.47917L6.33333 5.14583L9.66667 8.47917L13 5.14583L13.8333 5.97917V2.16667H2.16667V7.64583L3 8.47917ZM2.16667 13.8333H13.8333V8.33333L13 7.5L9.66667 10.8333L6.33333 7.5L3 10.8333L2.16667 10V13.8333ZM2.16667 13.8333V8.33333V10V2.16667V13.8333Z" fill="#595959"/>
</svg>