<svg width="10" height="18" viewBox="0 0 10 18" fill="none" xmlns="http://www.w3.org/2000/svg">
    <path d="M4.02544 18V15.85C3.14211 15.65 2.37977 15.2667 1.73844 14.7C1.09644 14.1333 0.625439 13.3333 0.325439 12.3L2.17544 11.55C2.42544 12.35 2.79644 12.9583 3.28844 13.375C3.77977 13.7917 4.42544 14 5.22544 14C5.90877 14 6.48811 13.846 6.96344 13.538C7.43811 13.2293 7.67544 12.75 7.67544 12.1C7.67544 11.5167 7.49211 11.054 7.12544 10.712C6.75877 10.3707 5.90877 9.98333 4.57544 9.55C3.14211 9.1 2.15877 8.56267 1.62544 7.938C1.09211 7.31267 0.825439 6.55 0.825439 5.65C0.825439 4.56667 1.17544 3.725 1.87544 3.125C2.57544 2.525 3.29211 2.18333 4.02544 2.1V0H6.02544V2.1C6.85877 2.23333 7.54644 2.53733 8.08844 3.012C8.62977 3.48733 9.02544 4.06667 9.27544 4.75L7.42544 5.55C7.22544 5.01667 6.94211 4.61667 6.57544 4.35C6.20877 4.08333 5.70877 3.95 5.07544 3.95C4.34211 3.95 3.78377 4.11267 3.40044 4.438C3.01711 4.76267 2.82544 5.16667 2.82544 5.65C2.82544 6.2 3.07544 6.63333 3.57544 6.95C4.07544 7.26667 4.94211 7.6 6.17544 7.95C7.32544 8.28333 8.19644 8.81233 8.78844 9.537C9.37977 10.2623 9.67544 11.1 9.67544 12.05C9.67544 13.2333 9.32544 14.1333 8.62544 14.75C7.92544 15.3667 7.05877 15.75 6.02544 15.9V18H4.02544Z" fill="#47676C"/>
</svg>