<svg width="24" height="28" viewBox="0 0 24 28" fill="none" xmlns="http://www.w3.org/2000/svg">
    <path d="M2.66667 27.3333C1.93333 27.3333 1.30533 27.0724 0.782667 26.5507C0.260889 26.028 0 25.4 0 24.6667V6C0 5.26667 0.260889 4.63911 0.782667 4.11733C1.30533 3.59467 1.93333 3.33333 2.66667 3.33333H4V0.666666H6.66667V3.33333H17.3333V0.666666H20V3.33333H21.3333C22.0667 3.33333 22.6947 3.59467 23.2173 4.11733C23.7391 4.63911 24 5.26667 24 6V24.6667C24 25.4 23.7391 26.028 23.2173 26.5507C22.6947 27.0724 22.0667 27.3333 21.3333 27.3333H2.66667ZM2.66667 24.6667H21.3333V11.3333H2.66667V24.6667Z" fill="#47676C"/>
</svg>