<svg width="18" height="14" viewBox="0 0 18 14" fill="none" xmlns="http://www.w3.org/2000/svg">
    <path d="M14.0001 7.83325V6.16658H17.3334V7.83325H14.0001ZM15.0001 13.6666L12.3334 11.6666L13.3334 10.3333L16.0001 12.3333L15.0001 13.6666ZM13.3334 3.66659L12.3334 2.33325L15.0001 0.333252L16.0001 1.66659L13.3334 3.66659ZM3.16675 12.8333V9.49992H2.33341C1.87508 9.49992 1.48286 9.33659 1.15675 9.00992C0.830081 8.68381 0.666748 8.29158 0.666748 7.83325V6.16658C0.666748 5.70825 0.830081 5.31575 1.15675 4.98909C1.48286 4.66297 1.87508 4.49992 2.33341 4.49992H5.66675L9.83341 1.99992V11.9999L5.66675 9.49992H4.83341V12.8333H3.16675ZM10.6667 9.79158V4.20825C11.0417 4.54158 11.344 4.94797 11.5734 5.42742C11.8023 5.90631 11.9167 6.43047 11.9167 6.99992C11.9167 7.56936 11.8023 8.09353 11.5734 8.57242C11.344 9.05186 11.0417 9.45825 10.6667 9.79158ZM2.33341 6.16658V7.83325H6.12508L8.16675 9.04158V4.95825L6.12508 6.16658H2.33341Z" fill="#1C1B1F"/>
</svg>