<svg width="12" height="16" viewBox="0 0 12 16" fill="none" xmlns="http://www.w3.org/2000/svg">
    <path d="M1.33333 15.0967C0.966667 15.0967 0.652667 14.949 0.391333 14.6536C0.130444 14.3577 0 14.0022 0 13.587V3.01934H1.33333V13.587H8.66667V15.0967H1.33333ZM4 12.0773C3.63333 12.0773 3.31956 11.9296 3.05867 11.6343C2.79733 11.3384 2.66667 10.9828 2.66667 10.5677V1.50967C2.66667 1.09451 2.79733 0.738982 3.05867 0.443087C3.31956 0.147696 3.63333 0 4 0H10C10.3667 0 10.6807 0.147696 10.942 0.443087C11.2029 0.738982 11.3333 1.09451 11.3333 1.50967V10.5677C11.3333 10.9828 11.2029 11.3384 10.942 11.6343C10.6807 11.9296 10.3667 12.0773 10 12.0773H4ZM4 10.5677H10V1.50967H4V10.5677Z" fill="white"/>
</svg>