<svg width="24" height="24" viewBox="0 0 24 24" fill="none" xmlns="http://www.w3.org/2000/svg">
    <path d="M12 24C8.93333 24 6.26133 22.9831 3.984 20.9493C1.70578 18.9164 0.4 16.3778 0.0666666 13.3333H2.8C3.11111 15.6444 4.13867 17.5556 5.88267 19.0667C7.62756 20.5778 9.66667 21.3333 12 21.3333C14.6 21.3333 16.8053 20.4276 18.616 18.616C20.4276 16.8053 21.3333 14.6 21.3333 12C21.3333 9.4 20.4276 7.19422 18.616 5.38267C16.8053 3.572 14.6 2.66667 12 2.66667C10.4667 2.66667 9.03333 3.02222 7.7 3.73333C6.36667 4.44444 5.24444 5.42222 4.33333 6.66667H8V9.33333H0V1.33333H2.66667V4.46667C3.8 3.04444 5.18356 1.94444 6.81733 1.16667C8.45022 0.388889 10.1778 0 12 0C13.6667 0 15.228 0.316444 16.684 0.949333C18.1391 1.58311 19.4058 2.43867 20.484 3.516C21.5613 4.59422 22.4169 5.86089 23.0507 7.316C23.6836 8.772 24 10.3333 24 12C24 13.6667 23.6836 15.2276 23.0507 16.6827C22.4169 18.1387 21.5613 19.4053 20.484 20.4827C19.4058 21.5609 18.1391 22.4169 16.684 23.0507C15.228 23.6836 13.6667 24 12 24ZM15.7333 17.6L10.6667 12.5333V5.33333H13.3333V11.4667L17.6 15.7333L15.7333 17.6Z" fill="#47676C"/>
</svg>