<svg width="4" height="14" viewBox="0 0 4 14" fill="none" xmlns="http://www.w3.org/2000/svg">
    <path d="M1.99992 13.6666C1.54159 13.6666 1.14936 13.5035 0.823252 13.1774C0.496586 12.8508 0.333252 12.4583 0.333252 11.9999C0.333252 11.5416 0.496586 11.1491 0.823252 10.8224C1.14936 10.4963 1.54159 10.3333 1.99992 10.3333C2.45825 10.3333 2.85075 10.4963 3.17742 10.8224C3.50353 11.1491 3.66659 11.5416 3.66659 11.9999C3.66659 12.4583 3.50353 12.8508 3.17742 13.1774C2.85075 13.5035 2.45825 13.6666 1.99992 13.6666ZM1.99992 8.66658C1.54159 8.66658 1.14936 8.50325 0.823252 8.17658C0.496586 7.85047 0.333252 7.45825 0.333252 6.99992C0.333252 6.54158 0.496586 6.14909 0.823252 5.82242C1.14936 5.49631 1.54159 5.33325 1.99992 5.33325C2.45825 5.33325 2.85075 5.49631 3.17742 5.82242C3.50353 6.14909 3.66659 6.54158 3.66659 6.99992C3.66659 7.45825 3.50353 7.85047 3.17742 8.17658C2.85075 8.50325 2.45825 8.66658 1.99992 8.66658ZM1.99992 3.66659C1.54159 3.66659 1.14936 3.50325 0.823252 3.17659C0.496586 2.85047 0.333252 2.45825 0.333252 1.99992C0.333252 1.54159 0.496586 1.14936 0.823252 0.823252C1.14936 0.496585 1.54159 0.333252 1.99992 0.333252C2.45825 0.333252 2.85075 0.496585 3.17742 0.823252C3.50353 1.14936 3.66659 1.54159 3.66659 1.99992C3.66659 2.45825 3.50353 2.85047 3.17742 3.17659C2.85075 3.50325 2.45825 3.66659 1.99992 3.66659Z" fill="#C3C3C3"/>
</svg>