<svg width="22" height="28" viewBox="0 0 22 28" fill="none" xmlns="http://www.w3.org/2000/svg">
    <path d="M0.333374 23.3333V20.6666H3.00004V11.3333C3.00004 9.48885 3.5556 7.84974 4.66671 6.41596C5.77782 4.98307 7.22226 4.0444 9.00004 3.59996V2.66663C9.00004 2.11107 9.19471 1.63907 9.58404 1.25063C9.97249 0.861293 10.4445 0.666626 11 0.666626C11.5556 0.666626 12.0276 0.861293 12.416 1.25063C12.8054 1.63907 13 2.11107 13 2.66663V3.59996C14.7778 4.0444 16.2223 4.98307 17.3334 6.41596C18.4445 7.84974 19 9.48885 19 11.3333V20.6666H21.6667V23.3333H0.333374ZM11 27.3333C10.2667 27.3333 9.63915 27.0724 9.11737 26.5506C8.59471 26.028 8.33337 25.4 8.33337 24.6666H13.6667C13.6667 25.4 13.4058 26.028 12.884 26.5506C12.3614 27.0724 11.7334 27.3333 11 27.3333ZM5.66671 20.6666H16.3334V11.3333C16.3334 9.86663 15.8112 8.61107 14.7667 7.56663C13.7223 6.52218 12.4667 5.99996 11 5.99996C9.53337 5.99996 8.27782 6.52218 7.23337 7.56663C6.18893 8.61107 5.66671 9.86663 5.66671 11.3333V20.6666Z" fill="#47676C"/>
</svg>