<svg width="20" height="20" viewBox="0 0 20 20" fill="none" xmlns="http://www.w3.org/2000/svg">
    <path d="M9 19.9498C7.73333 19.8165 6.55433 19.4708 5.463 18.9128C4.371 18.3541 3.421 17.6288 2.613 16.7368C1.80433 15.8455 1.16667 14.8248 0.7 13.6748C0.233333 12.5248 0 11.2998 0 9.9998C0 8.48314 0.304333 7.08314 0.913 5.7998C1.521 4.51647 2.35 3.41647 3.4 2.4998H1V0.499805H7V6.4998H5V3.7748C4.08333 4.50814 3.354 5.41247 2.812 6.4878C2.27067 7.56247 2 8.73314 2 9.9998C2 12.0498 2.671 13.8205 4.013 15.3118C5.35433 16.8038 7.01667 17.6748 9 17.9248V19.9498ZM8.575 14.5998L4.35 10.3498L5.75 8.9498L8.575 11.7748L14.25 6.0998L15.65 7.5248L8.575 14.5998ZM13 19.4998V13.4998H15V16.2248C15.9167 15.4748 16.646 14.5665 17.188 13.4998C17.7293 12.4331 18 11.2665 18 9.9998C18 7.9498 17.3293 6.1788 15.988 4.6868C14.646 3.19547 12.9833 2.3248 11 2.0748V0.0498047C13.5333 0.299805 15.6667 1.36647 17.4 3.2498C19.1333 5.13314 20 7.38314 20 9.9998C20 11.5165 19.6957 12.9165 19.087 14.1998C18.479 15.4831 17.65 16.5831 16.6 17.4998H19V19.4998H13Z" fill="#1C1B1F"/>
</svg>