<svg width="22" height="22" viewBox="0 0 22 22" fill="none" xmlns="http://www.w3.org/2000/svg">
    <path d="M10.9997 11C9.53301 11 8.27745 10.4777 7.23301 9.43328C6.18856 8.38884 5.66634 7.13328 5.66634 5.66662C5.66634 4.19995 6.18856 2.94439 7.23301 1.89995C8.27745 0.855505 9.53301 0.333282 10.9997 0.333282C12.4663 0.333282 13.7219 0.855505 14.7663 1.89995C15.8108 2.94439 16.333 4.19995 16.333 5.66662C16.333 7.13328 15.8108 8.38884 14.7663 9.43328C13.7219 10.4777 12.4663 11 10.9997 11ZM0.333008 21.6666V17.9333C0.333008 17.1777 0.527675 16.4831 0.917008 15.8493C1.30545 15.2164 1.8219 14.7333 2.46634 14.4C3.84412 13.7111 5.24412 13.1942 6.66634 12.8493C8.08856 12.5053 9.53301 12.3333 10.9997 12.3333C12.4663 12.3333 13.9108 12.5053 15.333 12.8493C16.7552 13.1942 18.1552 13.7111 19.533 14.4C20.1775 14.7333 20.6939 15.2164 21.0823 15.8493C21.4717 16.4831 21.6663 17.1777 21.6663 17.9333V21.6666H0.333008Z" fill="white"/>
</svg>