<svg width="40" height="41" viewBox="0 0 40 41" fill="none" xmlns="http://www.w3.org/2000/svg">
    <path d="M23.9004 39.8C23.4004 40.0667 22.8924 40.108 22.3764 39.924C21.859 39.7413 21.467 39.4 21.2004 38.9L18.2004 32.9C17.9337 32.4 17.8924 31.892 18.0764 31.376C18.259 30.8587 18.6004 30.4667 19.1004 30.2C19.6004 29.9333 20.1084 29.892 20.6244 30.076C21.1417 30.2587 21.5337 30.6 21.8004 31.1L24.8004 37.1C25.067 37.6 25.109 38.108 24.9264 38.624C24.7424 39.1413 24.4004 39.5333 23.9004 39.8ZM35.9004 39.8C35.4004 40.0667 34.8924 40.108 34.3764 39.924C33.859 39.7413 33.467 39.4 33.2004 38.9L30.2004 32.9C29.9337 32.4 29.8924 31.892 30.0764 31.376C30.259 30.8587 30.6004 30.4667 31.1004 30.2C31.6004 29.9333 32.1084 29.892 32.6244 30.076C33.1417 30.2587 33.5337 30.6 33.8004 31.1L36.8004 37.1C37.067 37.6 37.109 38.108 36.9264 38.624C36.7424 39.1413 36.4004 39.5333 35.9004 39.8ZM11.9004 39.8C11.4004 40.0667 10.8924 40.108 10.3764 39.924C9.85903 39.7413 9.46703 39.4 9.20037 38.9L6.20037 32.9C5.9337 32.4 5.89237 31.892 6.07637 31.376C6.25903 30.8587 6.60037 30.4667 7.10037 30.2C7.60037 29.9333 8.10837 29.892 8.62436 30.076C9.1417 30.2587 9.5337 30.6 9.80037 31.1L12.8004 37.1C13.067 37.6 13.109 38.108 12.9264 38.624C12.7424 39.1413 12.4004 39.5333 11.9004 39.8ZM11.0004 28C7.96703 28 5.3757 26.9247 3.22637 24.774C1.0757 22.6247 0.000366211 20.0333 0.000366211 17C0.000366211 14.2333 0.917033 11.8167 2.75037 9.75C4.5837 7.68333 6.85037 6.46667 9.55037 6.1C10.617 4.2 12.0757 2.708 13.9264 1.624C15.7757 0.541333 17.8004 0 20.0004 0C23.0004 0 25.6084 0.958666 27.8244 2.876C30.0417 4.792 31.3837 7.18333 31.8504 10.05C34.1504 10.25 36.0837 11.2 37.6504 12.9C39.217 14.6 40.0004 16.6333 40.0004 19C40.0004 21.5 39.1257 23.6253 37.3764 25.376C35.6257 27.1253 33.5004 28 31.0004 28H11.0004ZM11.0004 24H31.0004C32.4004 24 33.5837 23.5167 34.5504 22.55C35.517 21.5833 36.0004 20.4 36.0004 19C36.0004 17.6 35.517 16.4167 34.5504 15.45C33.5837 14.4833 32.4004 14 31.0004 14H28.0004V12C28.0004 9.8 27.217 7.91667 25.6504 6.35C24.0837 4.78333 22.2004 4 20.0004 4C18.4004 4 16.9417 4.43333 15.6244 5.3C14.3084 6.16667 13.317 7.33333 12.6504 8.8L12.1504 10H10.9004C9.00037 10.0667 7.3757 10.7747 6.02637 12.124C4.6757 13.4747 4.00037 15.1 4.00037 17C4.00037 18.9333 4.6837 20.5833 6.05037 21.95C7.41703 23.3167 9.06703 24 11.0004 24Z" fill="#1C1B1F"/>
</svg>