<svg width="20" height="20" viewBox="0 0 20 20" fill="none" xmlns="http://www.w3.org/2000/svg">
    <path d="M9.61521 0.463732C9.81515 0.222772 10.1848 0.222772 10.3848 0.463733L11.8259 2.20058L13.8979 1.24509C14.184 1.11316 14.5193 1.27547 14.5933 1.58169L15.1162 3.74535L17.3978 3.76087C17.7171 3.76304 17.9526 4.05992 17.882 4.37136L17.3931 6.52893L19.4294 7.5021C19.7206 7.64128 19.8057 8.01582 19.603 8.26708L18.2057 10L19.603 11.7329C19.8057 11.9842 19.7206 12.3587 19.4294 12.4979L17.3931 13.4711L17.882 15.6286C17.9526 15.9401 17.7171 16.237 17.3978 16.2391L15.1162 16.2547L14.5933 18.4183C14.5193 18.7245 14.184 18.8868 13.8979 18.7549L11.8259 17.7994L10 20L8.17405 17.7994L6.10206 18.7549C5.81599 18.8868 5.48067 18.7245 5.40667 18.4183L4.88381 16.2547L2.60223 16.2391C2.28291 16.237 2.04743 15.9401 2.118 15.6286L2.60689 13.4711L0.570581 12.4979C0.279359 12.3587 0.194349 11.9842 0.396951 11.7329L1.79426 10L0.396952 8.26708C0.194349 8.01582 0.279359 7.64128 0.57058 7.5021L2.60689 6.52893L2.118 4.37136C2.04743 4.05992 2.28291 3.76304 2.60223 3.76087L4.88381 3.74535L5.40667 1.58169C5.48067 1.27547 5.81599 1.11316 6.10206 1.24509L8.17405 2.20058L9.61521 0.463732Z" fill="url(#paint0_linear_1524_6672)"/>
    <path d="M11.4412 2.51986L11.6865 2.8155L12.0353 2.65462L14.1073 1.69913L14.6302 3.8628L14.722 4.24268L15.1128 4.24534L17.3944 4.26086L16.9055 6.41843L16.8172 6.80787L17.1775 6.98006L19.2138 7.95323L17.8165 9.68615L17.5634 10L17.8165 10.3138L19.2138 12.0468L17.1775 13.0199L16.8172 13.1921L16.9055 13.5816L17.3944 15.7391L15.1128 15.7547L14.722 15.7573L14.6302 16.1372L14.1073 18.3009L12.0353 17.3454L11.6865 17.1845L11.4412 17.4801L10 19.217L8.55884 17.4801L8.31353 17.1845L7.96467 17.3454L5.89268 18.3009L5.36982 16.1372L5.27802 15.7573L4.88721 15.7547L2.60563 15.7391L3.09453 13.5816L3.18277 13.1921L2.82249 13.0199L0.78618 12.0468L2.18349 10.3138L2.43656 10L2.18349 9.68615L0.78618 7.95323L2.82249 6.98006L3.18277 6.80787L3.09453 6.41843L2.60563 4.26086L4.88721 4.24534L5.27802 4.24268L5.36982 3.8628L5.89268 1.69913L7.96467 2.65462L8.31353 2.8155L8.55884 2.51986L10 0.783012L11.4412 2.51986Z" stroke="black" stroke-opacity="0.06"/>
    <path d="M13 8.5L9 12.5L7 10.5" stroke="white" stroke-width="1.5" stroke-linecap="square"/>
    <defs>
        <linearGradient id="paint0_linear_1524_6672" x1="-0.257097" y1="-1.95578e-07" x2="19.7365" y2="20.5077" gradientUnits="userSpaceOnUse">
            <stop stop-color="#5495FF"/>
            <stop offset="1" stop-color="#004BC6"/>
        </linearGradient>
    </defs>
</svg>